<svg width="30" height="30" viewBox="0 0 30 30" fill="none" xmlns="http://www.w3.org/2000/svg">
<path d="M6.25 15.9494C6.25 14.2522 6.25 13.4036 6.59308 12.6577C6.93615 11.9118 7.58046 11.3595 8.86906 10.255L10.1191 9.18358C12.4482 7.18717 13.6128 6.18896 15 6.18896C16.3872 6.18896 17.5518 7.18717 19.8809 9.18358L21.1309 10.255C22.4195 11.3595 23.0638 11.9118 23.4069 12.6577C23.75 13.4036 23.75 14.2522 23.75 15.9494V21.2499C23.75 23.6069 23.75 24.7855 23.0178 25.5177C22.2855 26.2499 21.107 26.2499 18.75 26.2499H11.25C8.89298 26.2499 7.71447 26.2499 6.98223 25.5177C6.25 24.7855 6.25 23.6069 6.25 21.2499V15.9494Z" stroke="#777777"/>
<path d="M18.125 26.25V19.75C18.125 19.1977 17.6773 18.75 17.125 18.75H12.875C12.3227 18.75 11.875 19.1977 11.875 19.75V26.25" stroke="#777777" stroke-linecap="round" stroke-linejoin="round"/>
<path d="M6.5 13.5H23.5" stroke="#777777"/>
</svg>
