<svg width="30" height="30" viewBox="0 0 30 30" fill="none" xmlns="http://www.w3.org/2000/svg">
<path d="M6.25 15.9499C6.25 14.2527 6.25 13.4041 6.59308 12.6582C6.93615 11.9123 7.58046 11.36 8.86906 10.2555L10.1191 9.18407C12.4482 7.18766 13.6128 6.18945 15 6.18945C16.3872 6.18945 17.5518 7.18766 19.8809 9.18407L21.1309 10.2555C22.4195 11.36 23.0638 11.9123 23.4069 12.6582C23.75 13.4041 23.75 14.2527 23.75 15.9499V21.2504C23.75 23.6074 23.75 24.7859 23.0178 25.5182C22.2855 26.2504 21.107 26.2504 18.75 26.2504H11.25C8.89298 26.2504 7.71447 26.2504 6.98223 25.5182C6.25 24.7859 6.25 23.6074 6.25 21.2504V15.9499Z" stroke="white"/>
<path d="M18.125 26.25V19.75C18.125 19.1977 17.6773 18.75 17.125 18.75H12.875C12.3227 18.75 11.875 19.1977 11.875 19.75V26.25" stroke="white" stroke-linecap="round" stroke-linejoin="round"/>
<path d="M6.5 13.5H23.5" stroke="white"/>
</svg>
